<mxfile host="app.diagrams.net" modified="2024-07-11T04:45:06.143Z" agent="Mozilla/5.0 (Windows NT 10.0; Win64; x64) AppleWebKit/537.36 (KHTML, like Gecko) Chrome/126.0.0.0 Safari/537.36 Edg/126.0.0.0" etag="IAFgYZK783zM8SzIPn77" version="24.6.4" type="github">
  <diagram name="第 1 页" id="YN24YRbw4lxffczu_oOs">
    <mxGraphModel dx="1002" dy="569" grid="1" gridSize="10" guides="1" tooltips="1" connect="1" arrows="1" fold="1" page="1" pageScale="1" pageWidth="827" pageHeight="1169" math="0" shadow="0">
      <root>
        <mxCell id="0" />
        <mxCell id="1" parent="0" />
        <mxCell id="Y6ogjxc_GPQmdI7bhcoR-2" value="" style="shape=waypoint;sketch=0;fillStyle=solid;size=6;pointerEvents=1;points=[];fillColor=none;resizable=0;rotatable=0;perimeter=centerPerimeter;snapToPoint=1;" vertex="1" parent="1">
          <mxGeometry x="380" y="320" width="20" height="20" as="geometry" />
        </mxCell>
        <mxCell id="Y6ogjxc_GPQmdI7bhcoR-3" value="" style="shape=waypoint;sketch=0;fillStyle=solid;size=6;pointerEvents=1;points=[];fillColor=none;resizable=0;rotatable=0;perimeter=centerPerimeter;snapToPoint=1;" vertex="1" parent="1">
          <mxGeometry x="380" y="170" width="20" height="20" as="geometry" />
        </mxCell>
        <mxCell id="Y6ogjxc_GPQmdI7bhcoR-5" value="" style="curved=1;endArrow=open;html=1;rounded=0;exitX=0.38;exitY=-0.08;exitDx=0;exitDy=0;exitPerimeter=0;entryX=0.1;entryY=0.12;entryDx=0;entryDy=0;entryPerimeter=0;endFill=0;strokeColor=default;" edge="1" parent="1" target="Y6ogjxc_GPQmdI7bhcoR-3">
          <mxGeometry width="50" height="50" relative="1" as="geometry">
            <mxPoint x="130" y="280" as="sourcePoint" />
            <mxPoint x="440" y="270" as="targetPoint" />
            <Array as="points">
              <mxPoint x="250" y="170" />
            </Array>
          </mxGeometry>
        </mxCell>
        <mxCell id="Y6ogjxc_GPQmdI7bhcoR-8" value="" style="curved=1;endArrow=classic;html=1;rounded=0;entryX=0.74;entryY=0.62;entryDx=0;entryDy=0;entryPerimeter=0;" edge="1" parent="1" target="Y6ogjxc_GPQmdI7bhcoR-2">
          <mxGeometry width="50" height="50" relative="1" as="geometry">
            <mxPoint x="130" y="280" as="sourcePoint" />
            <mxPoint x="440" y="270" as="targetPoint" />
            <Array as="points">
              <mxPoint x="250" y="370" />
            </Array>
          </mxGeometry>
        </mxCell>
        <mxCell id="Y6ogjxc_GPQmdI7bhcoR-9" value="P1" style="text;html=1;align=center;verticalAlign=middle;resizable=0;points=[];autosize=1;strokeColor=none;fillColor=none;" vertex="1" parent="1">
          <mxGeometry x="390" y="148" width="40" height="30" as="geometry" />
        </mxCell>
        <mxCell id="Y6ogjxc_GPQmdI7bhcoR-10" value="P2" style="text;html=1;align=center;verticalAlign=middle;resizable=0;points=[];autosize=1;strokeColor=none;fillColor=none;" vertex="1" parent="1">
          <mxGeometry x="400" y="318" width="40" height="30" as="geometry" />
        </mxCell>
        <mxCell id="Y6ogjxc_GPQmdI7bhcoR-11" value="A" style="text;html=1;align=center;verticalAlign=middle;resizable=0;points=[];autosize=1;strokeColor=none;fillColor=none;" vertex="1" parent="1">
          <mxGeometry x="85" y="278" width="30" height="30" as="geometry" />
        </mxCell>
        <mxCell id="Y6ogjxc_GPQmdI7bhcoR-12" value="h1=1.359m" style="text;html=1;align=center;verticalAlign=middle;resizable=0;points=[];autosize=1;strokeColor=none;fillColor=none;" vertex="1" parent="1">
          <mxGeometry x="200" y="148" width="80" height="30" as="geometry" />
        </mxCell>
        <mxCell id="Y6ogjxc_GPQmdI7bhcoR-13" value="S1=1.0km" style="text;html=1;align=center;verticalAlign=middle;resizable=0;points=[];autosize=1;strokeColor=none;fillColor=none;" vertex="1" parent="1">
          <mxGeometry x="200" y="218" width="80" height="30" as="geometry" />
        </mxCell>
        <mxCell id="Y6ogjxc_GPQmdI7bhcoR-14" value="h2=2.009m" style="text;html=1;align=center;verticalAlign=middle;resizable=0;points=[];autosize=1;strokeColor=none;fillColor=none;" vertex="1" parent="1">
          <mxGeometry x="220" y="348" width="80" height="30" as="geometry" />
        </mxCell>
        <mxCell id="Y6ogjxc_GPQmdI7bhcoR-15" value="&lt;span style=&quot;white-space: pre;&quot;&gt;&#x9;&lt;/span&gt;&lt;span style=&quot;white-space: pre;&quot;&gt;&#x9;&lt;/span&gt;S2=2.0km" style="text;html=1;align=center;verticalAlign=middle;resizable=0;points=[];autosize=1;strokeColor=none;fillColor=none;" vertex="1" parent="1">
          <mxGeometry x="205" y="318" width="130" height="30" as="geometry" />
        </mxCell>
        <mxCell id="Y6ogjxc_GPQmdI7bhcoR-16" value="HA=5.016m" style="text;html=1;align=center;verticalAlign=middle;resizable=0;points=[];autosize=1;strokeColor=none;fillColor=none;" vertex="1" parent="1">
          <mxGeometry x="15" y="308" width="90" height="30" as="geometry" />
        </mxCell>
        <mxCell id="Y6ogjxc_GPQmdI7bhcoR-17" value="" style="shape=sumEllipse;perimeter=ellipsePerimeter;whiteSpace=wrap;html=1;backgroundOutline=1;" vertex="1" parent="1">
          <mxGeometry x="105" y="260" width="35" height="40" as="geometry" />
        </mxCell>
        <mxCell id="Y6ogjxc_GPQmdI7bhcoR-18" value="1.如下图1，A为已知点，P1，P2为未知点。已知点数据和观测数据及路线长标注在图上，求未知点高程及改正数" style="text;html=1;align=center;verticalAlign=middle;resizable=0;points=[];autosize=1;strokeColor=none;fillColor=none;" vertex="1" parent="1">
          <mxGeometry x="15" y="100" width="620" height="30" as="geometry" />
        </mxCell>
        <mxCell id="Y6ogjxc_GPQmdI7bhcoR-19" value="图1" style="text;html=1;align=center;verticalAlign=middle;resizable=0;points=[];autosize=1;strokeColor=none;fillColor=none;" vertex="1" parent="1">
          <mxGeometry x="210" y="388" width="40" height="30" as="geometry" />
        </mxCell>
        <mxCell id="Y6ogjxc_GPQmdI7bhcoR-20" value="2.如下图2，AB为已知点，已知点数据和观测数据及路线长数据标注在图上，求未知点P1,P2的高程和改正数" style="text;html=1;align=center;verticalAlign=middle;resizable=0;points=[];autosize=1;strokeColor=none;fillColor=none;" vertex="1" parent="1">
          <mxGeometry x="20" y="450" width="590" height="30" as="geometry" />
        </mxCell>
        <mxCell id="Y6ogjxc_GPQmdI7bhcoR-21" value="" style="shape=sumEllipse;perimeter=ellipsePerimeter;whiteSpace=wrap;html=1;backgroundOutline=1;" vertex="1" parent="1">
          <mxGeometry x="110" y="610" width="30" height="30" as="geometry" />
        </mxCell>
        <mxCell id="Y6ogjxc_GPQmdI7bhcoR-22" value="" style="shape=sumEllipse;perimeter=ellipsePerimeter;whiteSpace=wrap;html=1;backgroundOutline=1;" vertex="1" parent="1">
          <mxGeometry x="540" y="610" width="30" height="30" as="geometry" />
        </mxCell>
        <mxCell id="Y6ogjxc_GPQmdI7bhcoR-23" value="" style="shape=waypoint;sketch=0;fillStyle=solid;size=6;pointerEvents=1;points=[];fillColor=none;resizable=0;rotatable=0;perimeter=centerPerimeter;snapToPoint=1;" vertex="1" parent="1">
          <mxGeometry x="315" y="700" width="20" height="20" as="geometry" />
        </mxCell>
        <mxCell id="Y6ogjxc_GPQmdI7bhcoR-24" value="" style="shape=waypoint;sketch=0;fillStyle=solid;size=6;pointerEvents=1;points=[];fillColor=none;resizable=0;rotatable=0;perimeter=centerPerimeter;snapToPoint=1;" vertex="1" parent="1">
          <mxGeometry x="315" y="540" width="20" height="20" as="geometry" />
        </mxCell>
        <mxCell id="Y6ogjxc_GPQmdI7bhcoR-25" value="A" style="text;html=1;align=center;verticalAlign=middle;resizable=0;points=[];autosize=1;strokeColor=none;fillColor=none;" vertex="1" parent="1">
          <mxGeometry x="65" y="638" width="30" height="30" as="geometry" />
        </mxCell>
        <mxCell id="Y6ogjxc_GPQmdI7bhcoR-26" value="B" style="text;html=1;align=center;verticalAlign=middle;resizable=0;points=[];autosize=1;strokeColor=none;fillColor=none;" vertex="1" parent="1">
          <mxGeometry x="595" y="618" width="30" height="30" as="geometry" />
        </mxCell>
        <mxCell id="Y6ogjxc_GPQmdI7bhcoR-28" value="P1" style="text;html=1;align=center;verticalAlign=middle;resizable=0;points=[];autosize=1;strokeColor=none;fillColor=none;" vertex="1" parent="1">
          <mxGeometry x="330" y="518" width="40" height="30" as="geometry" />
        </mxCell>
        <mxCell id="Y6ogjxc_GPQmdI7bhcoR-29" value="P2" style="text;html=1;align=center;verticalAlign=middle;resizable=0;points=[];autosize=1;strokeColor=none;fillColor=none;" vertex="1" parent="1">
          <mxGeometry x="300" y="720" width="40" height="30" as="geometry" />
        </mxCell>
        <mxCell id="Y6ogjxc_GPQmdI7bhcoR-30" style="edgeStyle=orthogonalEdgeStyle;rounded=0;orthogonalLoop=1;jettySize=auto;html=1;exitX=1;exitY=0;exitDx=0;exitDy=0;entryX=0.19;entryY=0.58;entryDx=0;entryDy=0;entryPerimeter=0;curved=1;endArrow=open;endFill=0;" edge="1" parent="1" source="Y6ogjxc_GPQmdI7bhcoR-21" target="Y6ogjxc_GPQmdI7bhcoR-24">
          <mxGeometry relative="1" as="geometry">
            <Array as="points">
              <mxPoint x="136" y="550" />
            </Array>
          </mxGeometry>
        </mxCell>
        <mxCell id="Y6ogjxc_GPQmdI7bhcoR-31" style="edgeStyle=orthogonalEdgeStyle;rounded=0;orthogonalLoop=1;jettySize=auto;html=1;exitX=0;exitY=0;exitDx=0;exitDy=0;entryX=0.95;entryY=1.14;entryDx=0;entryDy=0;entryPerimeter=0;curved=1;startArrow=none;startFill=0;endArrow=open;endFill=0;" edge="1" parent="1" source="Y6ogjxc_GPQmdI7bhcoR-22" target="Y6ogjxc_GPQmdI7bhcoR-24">
          <mxGeometry relative="1" as="geometry">
            <Array as="points">
              <mxPoint x="544" y="550" />
            </Array>
          </mxGeometry>
        </mxCell>
        <mxCell id="Y6ogjxc_GPQmdI7bhcoR-32" style="edgeStyle=entityRelationEdgeStyle;rounded=0;orthogonalLoop=1;jettySize=auto;html=1;exitX=0.5;exitY=1;exitDx=0;exitDy=0;entryX=0.11;entryY=0.54;entryDx=0;entryDy=0;entryPerimeter=0;curved=1;endArrow=open;endFill=0;" edge="1" parent="1" source="Y6ogjxc_GPQmdI7bhcoR-21" target="Y6ogjxc_GPQmdI7bhcoR-23">
          <mxGeometry relative="1" as="geometry">
            <Array as="points">
              <mxPoint x="220" y="710" />
              <mxPoint x="210" y="730" />
            </Array>
          </mxGeometry>
        </mxCell>
        <mxCell id="Y6ogjxc_GPQmdI7bhcoR-35" style="edgeStyle=orthogonalEdgeStyle;rounded=0;orthogonalLoop=1;jettySize=auto;html=1;exitX=0;exitY=1;exitDx=0;exitDy=0;curved=1;endArrow=open;endFill=0;entryX=0.95;entryY=0.46;entryDx=0;entryDy=0;entryPerimeter=0;" edge="1" parent="1" source="Y6ogjxc_GPQmdI7bhcoR-22" target="Y6ogjxc_GPQmdI7bhcoR-23">
          <mxGeometry relative="1" as="geometry">
            <mxPoint x="320" y="730" as="targetPoint" />
            <Array as="points">
              <mxPoint x="544" y="712" />
              <mxPoint x="370" y="712" />
              <mxPoint x="370" y="710" />
            </Array>
          </mxGeometry>
        </mxCell>
        <mxCell id="Y6ogjxc_GPQmdI7bhcoR-36" value="h1=1.359m&lt;div&gt;S1=1km&lt;/div&gt;" style="text;html=1;align=center;verticalAlign=middle;resizable=0;points=[];autosize=1;strokeColor=none;fillColor=none;" vertex="1" parent="1">
          <mxGeometry x="110" y="523" width="80" height="40" as="geometry" />
        </mxCell>
        <mxCell id="Y6ogjxc_GPQmdI7bhcoR-37" value="h3=-0.357m&lt;div&gt;S3=2km&lt;/div&gt;" style="text;html=1;align=center;verticalAlign=middle;resizable=0;points=[];autosize=1;strokeColor=none;fillColor=none;" vertex="1" parent="1">
          <mxGeometry x="405" y="503" width="90" height="40" as="geometry" />
        </mxCell>
        <mxCell id="Y6ogjxc_GPQmdI7bhcoR-38" value="h4=1.012m&lt;div&gt;S4=4km&lt;/div&gt;" style="text;html=1;align=center;verticalAlign=middle;resizable=0;points=[];autosize=1;strokeColor=none;fillColor=none;" vertex="1" parent="1">
          <mxGeometry x="440" y="710" width="80" height="40" as="geometry" />
        </mxCell>
        <mxCell id="Y6ogjxc_GPQmdI7bhcoR-39" value="h2=2.009m&lt;div&gt;S2=2km&lt;/div&gt;" style="text;html=1;align=center;verticalAlign=middle;resizable=0;points=[];autosize=1;strokeColor=none;fillColor=none;" vertex="1" parent="1">
          <mxGeometry x="160" y="688" width="80" height="40" as="geometry" />
        </mxCell>
        <mxCell id="Y6ogjxc_GPQmdI7bhcoR-40" value="3.如下图3，A为已知点，P为未知点，B的高程值为HB=6.008m但有误差，m&lt;sub&gt;HB=&lt;/sub&gt;" style="text;html=1;align=center;verticalAlign=middle;resizable=0;points=[];autosize=1;strokeColor=none;fillColor=none;" vertex="1" parent="1">
          <mxGeometry x="25" y="790" width="450" height="30" as="geometry" />
        </mxCell>
        <mxCell id="Y6ogjxc_GPQmdI7bhcoR-41" value="图2" style="text;html=1;align=center;verticalAlign=middle;resizable=0;points=[];autosize=1;strokeColor=none;fillColor=none;" vertex="1" parent="1">
          <mxGeometry x="270" y="738" width="40" height="30" as="geometry" />
        </mxCell>
        <mxCell id="Y6ogjxc_GPQmdI7bhcoR-42" value="" style="shape=image;verticalLabelPosition=bottom;labelBackgroundColor=default;verticalAlign=top;aspect=fixed;imageAspect=0;image=data:image/png,iVBORw0KGgoAAAANSUhEUgAAAJgAAABWCAIAAAC8QsiyAAAAAXNSR0IArs4c6QAACy5JREFUeJztm2lME10Xx2/FBdR5IHXBSrCoKCrBRhqjglFURKM1QoyiMbK4oSLELUFwgUhAwEhUXGIV0EBdiChGjBsCURYTRdOgtoiiCLJZS6ClVmg774ebTMa21Om0QJn3/j71tmfOPTP/OdOZc+6wcBwHiMHPkIEOAGEdkJAMAQnJEJCQDAEJyRCQkAwBCckQkJAMAQnJEJCQDAEJyRCQkAwBCckQhg50AMzk2rVr9fX1lvtxdHTct28fJVMcYW0uX75suYQQNzc3ipOijLQ+QqEQAJCQkGC5K0dHR6qmfXpu/h8C09HHx6ef50U3O1YGpuPx48f7eV4kpDURCoVVVVXe3t4rVqzo56mRkNYEpuOxY8f6f2okpNWA6ejl5RUYGNj/syMhrQZMx9jY2AGZHQlpHWA6enp6btq0aUACQEJaB5iOBw4cGKgAWDhaoGwxQqEwIiJixowZEolkoGJAGWkFrl69CgCIiooawBhQRlrK9evXw8LCpk+fXlNTM4Bh9GFGXr58OTw8vLOz01oOu7q6Hj58GB4ePmPGDBaLNWbMmKVLl8bFxZWXl2s0GmvNYi6ZmZkAgJ07d1Ixbmtry8zMDA4OdnNzg/GHh4ffunWrpaXF0ozqu+rfiRMn+Hx+bW2t5a60Wm1hYaGHh0dvezF37txnz55ptVrL5zKLmzdvAgDc3d3/aalSqdLT09lsdm+7EBIS8vXrV9qR9JWQKpUqIiKCx+NJpVILXfX09KSlpWEYxmaz4+LiSkpKGhoaysrKzpw54+XlRRwIDMMSExNVKpVV4qeIv78/ACA1NdW0WVtb25YtW+AJJxKJZDKZTqfDcbyjo4OsroeHx6NHj+BP5mLrQup0OpFIhGFYQECARCLR+1WpVMbHx5PP65SUlJ6eHktmpM69e/cAAFOmTDFtplQq9+zZAwA4fPhwZ2en3q86nS4nJ4eIn8vllpWV0QjG1oUUi8UzZ87k8XgfP340akAcJiIvCwoKLJmROgKBAABw8uRJ02ZFRUUYhmEYFhgYWFpaaphwTU1NMLMhYWFhSqXS3GBs+vFDq9XeuXNHIpHw+XwHBwedTmdoM2rUqOjoaB6PB4cKheL69evt7e19HdujR48KCwu5XO7+/ftNmGm12ufPnysUCoVCUVBQEBoaWlFRoWfj5OQ0depUYvjkyROpVGpuPDYtZGtr68uXLwEAWVlZkydPPnXqlNG7U3d391WrVhHDoqKit2/f9nVsxM3qiBEjTJh1d3fL5XJiWF9f/+zZM/zvG1QHBwcXFxdi2NzczDQhFQoFObfOnj1rVCE7O7v58+eTt6qsrMT78vm4uLg4Pz/f1dWVfFU3CovFsrOzM22D47hWq7UwJJsWsr29va6ujhg2NzfX1tYatXRxceFwOMSwsbFRrVb3XWAwHXfs2OHk5GTa0t7ePiAgAMMwOORyucuXL2exWGQbtVrd0tJCDDEMI19pKWLTQnI4HL0HDDc3N6OWo0ePHj9+fP9EVVFRcePGDRcXlx07dlCxX7Nmzf379zdu3Lh9+/bbt2/7+PjoGajV6sbGRmLI5/MnTZpkblQ2vYpu0qRJkZGR1dXVCoUCABAVFeXt7W3U8s+fPyqVyiznOp1u2bJliYmJCxcuNGtDIh0nTJhAxX7IkCFLlixZsmRJbwZ1dXXkv4yAgABnZ2ezQgKgzyo7VnyO/P79e0lJiVQqNVG4efr0KXmn4uPjTT9Wv379Gl7uBAKBWfG8efMGAODs7Pzjxw+zNuwNjUaTnJxMRO7r60uvvmPTGQkAYLFYrq6urq6uJmxwHK+uriZ/4+3trfc/RAZ2neDnwsLChoYG0/7JwHTcvn37xIkTKW5img8fPhAFAS6Xm5SU1Nvfxz+wymlliBVLdP9ELpcHBQURe+Tv79/U1GQiKr0jEBkZSXGi9+/fDx8+HMOwuro6y8PWarWVlZXz5s2DYfB4vIqKCtremCBkQUEBcVuIYdjNmzeNmpWVlcGjFh4ePnv2bLKWf/78oTIRfPY/dOgQ7VBlMllGRkZSUtLGjRvnzJkDZ4c15La2NtpucbOE1Gg0p0+fJg6Z1QkODqaxM3K5fP369YSTvXv3Gq2b5+XlwSf3S5cu4Th+7tw58tSnTp3650S1tbX//fcfAMCSU1MqlRJFKMj48eNjY2M/fvxoYevGPCHT0tL6SEV6Qup0OrhYBrJ+/XrY2DNKXl7e58+f4eeurq7JkycTG44ZM+afcx0+fBgAEB0dbVaEemi1WrlcLpPJZDJZXV1dYWEhsVhLIBBUVVXRa33gg/3SCkvqVFQ0JCkpiXwa3b5924RxQ0PDuHHjAABisdjiqP9CrVYTd60YhqWmpqrVahp+BrGQLS0ta9euhYdgy5Yt5mZzS0vLyJEjCSH5fL4JY/hqVUREhGUhG6ejoyMkJISIhF4nbrAKSe5eRUVFGfb5qACvlgQlJSVGzX7+/AmfT16/fm1Z1L2Sn59PhIFhmEgkMvcaOyiFVCqVcXFxcLcTEhJorwrQq9yuW7fOqFlKSgoAIDQ01IKQ/x0Jn88nIqFRFhh8Qvb09MAji2HY1atXLVwPEBkZSdbSsH2tUqmmT58OAKDXuKeITCbTe4Hr/v37Znmw6aK5ITiO5+XlJSUlsdlsoVC4devWoUMtKk5t27aNPCTfA0OuXLny6dOnoKAgX19felNoNJr29vb29najjfHeEIvFZs0ymITEcfzx48dxcXFsNjs3Nzc4ONiwDldfX+/r67tr167fv39T8Tlnzpzg4GBieObMmV+/fpENsrKygAWLj2tqavz8/NhsNpvNDgsL+/nzJ8UNf/z4QXEXIINJyBcvXuzevdve3v7atWsrV640Wk1tbm6urq52cXFxcHCg6FavOUxOyszMTLFYvGzZMhO9CxN0dXWlpKSUl5fDYU5OTkZGBsUe8oQJE+zt7anPNWiElEgkMTExTk5O2dnZfn5+vdXEv3z5olAopkyZQt3zokWLyDqdP3+e+AzfBTh06BC9mBsbG9+9e0f+RiKRKJVKKttyOBwTdX9DBoeQNTU1sIubmZm5YMGC3sy6u7urqqoAANS7GZCDBw8Sn5uammCL49atW69evZo7d+7KlSvphW1nZ6f3F+7k5DRs2DBDS5lMRl4kwOFwiEosRWy9jQUAaG1tjYmJqa2tPX78uEKhKC0tNbTRarU1NTWNjY1379718vIyd7XA6tWrPT09P3z4AIdCoXDbtm3wGnv06FHakTs7O8+aNQueWwAADMMEAgG5CkHw/ft38t3NihUrPD09zZusT+6mrff4obdslQr+/v40iu+5ublkJw8ePAAAeHh4WBI82a1AICguLjZaGVer1dHR0cTUXC6XRuXBpi+tXV1dycnJFy9eNGsrDodj1m0CZPPmzWPHjiWGlqcjZNWqVbA5093d7ejoaPi3h+N4fn5+dnY2HGIYlpycTC4OUIW65v3fxhKLxdOmTTPXT2xsrEajMfeMxnE8PT2d7IfD4dBwYsi3b99Wr14NAMAwLCQkpKSkRC6Xwwpca2trWloa8e4Hm80WiUT0+lk21MYKCgrSE7KsrIyGn/T0dBoHAjdYXHrhwgV6fgxRKpWmX8UCNvs21iAlJiYGHtZRo0ZZ3Xlra6tIJNqwYQOXyyX0W7x4cWpqqlQqpd2JhKA3lv+io6MDrjk+efKkXm/ExkFC6nPkyJHhw4frva1n+yAhGYJNP34gqIOEZAhISIaAhGQISEiGgIRkCEhIhoCEZAhISIaAhGQISEiGgIRkCEhIhoCEZAhISIaAhGQISEiGgIRkCEhIhoCEZAhISIaAhGQI/wOH+8O43qfRqwAAAABJRU5ErkJggg==;" vertex="1" parent="1">
          <mxGeometry x="466.98" y="790" width="53.02" height="30" as="geometry" />
        </mxCell>
        <mxCell id="Y6ogjxc_GPQmdI7bhcoR-43" value="mm，求P、B点高程及精度" style="text;html=1;align=center;verticalAlign=middle;resizable=0;points=[];autosize=1;strokeColor=none;fillColor=none;" vertex="1" parent="1">
          <mxGeometry x="510" y="790" width="170" height="30" as="geometry" />
        </mxCell>
        <mxCell id="Y6ogjxc_GPQmdI7bhcoR-44" value="" style="shape=sumEllipse;perimeter=ellipsePerimeter;whiteSpace=wrap;html=1;backgroundOutline=1;" vertex="1" parent="1">
          <mxGeometry x="495" y="905" width="20" height="20" as="geometry" />
        </mxCell>
        <mxCell id="Y6ogjxc_GPQmdI7bhcoR-45" value="" style="shape=sumEllipse;perimeter=ellipsePerimeter;whiteSpace=wrap;html=1;backgroundOutline=1;" vertex="1" parent="1">
          <mxGeometry x="65" y="905" width="25" height="20" as="geometry" />
        </mxCell>
        <mxCell id="Y6ogjxc_GPQmdI7bhcoR-48" style="edgeStyle=orthogonalEdgeStyle;rounded=0;orthogonalLoop=1;jettySize=auto;html=1;entryX=0;entryY=0.5;entryDx=0;entryDy=0;" edge="1" parent="1" source="Y6ogjxc_GPQmdI7bhcoR-46" target="Y6ogjxc_GPQmdI7bhcoR-44">
          <mxGeometry relative="1" as="geometry" />
        </mxCell>
        <mxCell id="Y6ogjxc_GPQmdI7bhcoR-46" value="" style="shape=waypoint;sketch=0;fillStyle=solid;size=6;pointerEvents=1;points=[];fillColor=none;resizable=0;rotatable=0;perimeter=centerPerimeter;snapToPoint=1;" vertex="1" parent="1">
          <mxGeometry x="270" y="905" width="20" height="20" as="geometry" />
        </mxCell>
        <mxCell id="Y6ogjxc_GPQmdI7bhcoR-47" style="edgeStyle=orthogonalEdgeStyle;rounded=0;orthogonalLoop=1;jettySize=auto;html=1;exitX=1;exitY=0.5;exitDx=0;exitDy=0;entryX=-0.08;entryY=0.73;entryDx=0;entryDy=0;entryPerimeter=0;" edge="1" parent="1" source="Y6ogjxc_GPQmdI7bhcoR-45" target="Y6ogjxc_GPQmdI7bhcoR-46">
          <mxGeometry relative="1" as="geometry" />
        </mxCell>
        <mxCell id="Y6ogjxc_GPQmdI7bhcoR-49" value="P" style="text;html=1;align=center;verticalAlign=middle;resizable=0;points=[];autosize=1;strokeColor=none;fillColor=none;" vertex="1" parent="1">
          <mxGeometry x="265" y="918" width="30" height="30" as="geometry" />
        </mxCell>
        <mxCell id="Y6ogjxc_GPQmdI7bhcoR-50" value="B" style="text;html=1;align=center;verticalAlign=middle;resizable=0;points=[];autosize=1;strokeColor=none;fillColor=none;" vertex="1" parent="1">
          <mxGeometry x="525" y="898" width="30" height="30" as="geometry" />
        </mxCell>
        <mxCell id="Y6ogjxc_GPQmdI7bhcoR-51" value="A" style="text;html=1;align=center;verticalAlign=middle;resizable=0;points=[];autosize=1;strokeColor=none;fillColor=none;" vertex="1" parent="1">
          <mxGeometry x="15" y="898" width="30" height="30" as="geometry" />
        </mxCell>
        <mxCell id="Y6ogjxc_GPQmdI7bhcoR-52" value="HA=5.016m" style="text;html=1;align=center;verticalAlign=middle;resizable=0;points=[];autosize=1;strokeColor=none;fillColor=none;" vertex="1" parent="1">
          <mxGeometry x="15" y="938" width="90" height="30" as="geometry" />
        </mxCell>
        <mxCell id="Y6ogjxc_GPQmdI7bhcoR-53" value="HB=6.008m" style="text;html=1;align=center;verticalAlign=middle;resizable=0;points=[];autosize=1;strokeColor=none;fillColor=none;" vertex="1" parent="1">
          <mxGeometry x="455" y="928" width="90" height="30" as="geometry" />
        </mxCell>
        <mxCell id="Y6ogjxc_GPQmdI7bhcoR-55" value="&lt;span style=&quot;color: rgb(0, 0, 0); font-family: Helvetica; font-size: 12px; font-style: normal; font-variant-ligatures: normal; font-variant-caps: normal; font-weight: 400; letter-spacing: normal; orphans: 2; text-align: center; text-indent: 0px; text-transform: none; widows: 2; word-spacing: 0px; -webkit-text-stroke-width: 0px; white-space: nowrap; background-color: rgb(251, 251, 251); text-decoration-thickness: initial; text-decoration-style: initial; text-decoration-color: initial; display: inline !important; float: none;&quot;&gt;m&lt;/span&gt;&lt;sub style=&quot;forced-color-adjust: none; color: rgb(0, 0, 0); font-family: Helvetica; font-style: normal; font-variant-ligatures: normal; font-variant-caps: normal; font-weight: 400; letter-spacing: normal; orphans: 2; text-align: center; text-indent: 0px; text-transform: none; widows: 2; word-spacing: 0px; -webkit-text-stroke-width: 0px; white-space: nowrap; background-color: rgb(251, 251, 251); text-decoration-thickness: initial; text-decoration-style: initial; text-decoration-color: initial;&quot;&gt;HB=&lt;/sub&gt;" style="text;whiteSpace=wrap;html=1;" vertex="1" parent="1">
          <mxGeometry x="463.49" y="968" width="60" height="40" as="geometry" />
        </mxCell>
        <mxCell id="Y6ogjxc_GPQmdI7bhcoR-56" value="" style="shape=image;verticalLabelPosition=bottom;labelBackgroundColor=default;verticalAlign=top;aspect=fixed;imageAspect=0;image=data:image/png,iVBORw0KGgoAAAANSUhEUgAAAJgAAABWCAIAAAC8QsiyAAAAAXNSR0IArs4c6QAACy5JREFUeJztm2lME10Xx2/FBdR5IHXBSrCoKCrBRhqjglFURKM1QoyiMbK4oSLELUFwgUhAwEhUXGIV0EBdiChGjBsCURYTRdOgtoiiCLJZS6ClVmg774ebTMa21Om0QJn3/j71tmfOPTP/OdOZc+6wcBwHiMHPkIEOAGEdkJAMAQnJEJCQDAEJyRCQkAwBCckQkJAMAQnJEJCQDAEJyRCQkAwBCckQhg50AMzk2rVr9fX1lvtxdHTct28fJVMcYW0uX75suYQQNzc3ipOijLQ+QqEQAJCQkGC5K0dHR6qmfXpu/h8C09HHx6ef50U3O1YGpuPx48f7eV4kpDURCoVVVVXe3t4rVqzo56mRkNYEpuOxY8f6f2okpNWA6ejl5RUYGNj/syMhrQZMx9jY2AGZHQlpHWA6enp6btq0aUACQEJaB5iOBw4cGKgAWDhaoGwxQqEwIiJixowZEolkoGJAGWkFrl69CgCIiooawBhQRlrK9evXw8LCpk+fXlNTM4Bh9GFGXr58OTw8vLOz01oOu7q6Hj58GB4ePmPGDBaLNWbMmKVLl8bFxZWXl2s0GmvNYi6ZmZkAgJ07d1Ixbmtry8zMDA4OdnNzg/GHh4ffunWrpaXF0ozqu+rfiRMn+Hx+bW2t5a60Wm1hYaGHh0dvezF37txnz55ptVrL5zKLmzdvAgDc3d3/aalSqdLT09lsdm+7EBIS8vXrV9qR9JWQKpUqIiKCx+NJpVILXfX09KSlpWEYxmaz4+LiSkpKGhoaysrKzpw54+XlRRwIDMMSExNVKpVV4qeIv78/ACA1NdW0WVtb25YtW+AJJxKJZDKZTqfDcbyjo4OsroeHx6NHj+BP5mLrQup0OpFIhGFYQECARCLR+1WpVMbHx5PP65SUlJ6eHktmpM69e/cAAFOmTDFtplQq9+zZAwA4fPhwZ2en3q86nS4nJ4eIn8vllpWV0QjG1oUUi8UzZ87k8XgfP340akAcJiIvCwoKLJmROgKBAABw8uRJ02ZFRUUYhmEYFhgYWFpaaphwTU1NMLMhYWFhSqXS3GBs+vFDq9XeuXNHIpHw+XwHBwedTmdoM2rUqOjoaB6PB4cKheL69evt7e19HdujR48KCwu5XO7+/ftNmGm12ufPnysUCoVCUVBQEBoaWlFRoWfj5OQ0depUYvjkyROpVGpuPDYtZGtr68uXLwEAWVlZkydPPnXqlNG7U3d391WrVhHDoqKit2/f9nVsxM3qiBEjTJh1d3fL5XJiWF9f/+zZM/zvG1QHBwcXFxdi2NzczDQhFQoFObfOnj1rVCE7O7v58+eTt6qsrMT78vm4uLg4Pz/f1dWVfFU3CovFsrOzM22D47hWq7UwJJsWsr29va6ujhg2NzfX1tYatXRxceFwOMSwsbFRrVb3XWAwHXfs2OHk5GTa0t7ePiAgAMMwOORyucuXL2exWGQbtVrd0tJCDDEMI19pKWLTQnI4HL0HDDc3N6OWo0ePHj9+fP9EVVFRcePGDRcXlx07dlCxX7Nmzf379zdu3Lh9+/bbt2/7+PjoGajV6sbGRmLI5/MnTZpkblQ2vYpu0qRJkZGR1dXVCoUCABAVFeXt7W3U8s+fPyqVyiznOp1u2bJliYmJCxcuNGtDIh0nTJhAxX7IkCFLlixZsmRJbwZ1dXXkv4yAgABnZ2ezQgKgzyo7VnyO/P79e0lJiVQqNVG4efr0KXmn4uPjTT9Wv379Gl7uBAKBWfG8efMGAODs7Pzjxw+zNuwNjUaTnJxMRO7r60uvvmPTGQkAYLFYrq6urq6uJmxwHK+uriZ/4+3trfc/RAZ2neDnwsLChoYG0/7JwHTcvn37xIkTKW5img8fPhAFAS6Xm5SU1Nvfxz+wymlliBVLdP9ELpcHBQURe+Tv79/U1GQiKr0jEBkZSXGi9+/fDx8+HMOwuro6y8PWarWVlZXz5s2DYfB4vIqKCtremCBkQUEBcVuIYdjNmzeNmpWVlcGjFh4ePnv2bLKWf/78oTIRfPY/dOgQ7VBlMllGRkZSUtLGjRvnzJkDZ4c15La2NtpucbOE1Gg0p0+fJg6Z1QkODqaxM3K5fP369YSTvXv3Gq2b5+XlwSf3S5cu4Th+7tw58tSnTp3650S1tbX//fcfAMCSU1MqlRJFKMj48eNjY2M/fvxoYevGPCHT0tL6SEV6Qup0OrhYBrJ+/XrY2DNKXl7e58+f4eeurq7JkycTG44ZM+afcx0+fBgAEB0dbVaEemi1WrlcLpPJZDJZXV1dYWEhsVhLIBBUVVXRa33gg/3SCkvqVFQ0JCkpiXwa3b5924RxQ0PDuHHjAABisdjiqP9CrVYTd60YhqWmpqrVahp+BrGQLS0ta9euhYdgy5Yt5mZzS0vLyJEjCSH5fL4JY/hqVUREhGUhG6ejoyMkJISIhF4nbrAKSe5eRUVFGfb5qACvlgQlJSVGzX7+/AmfT16/fm1Z1L2Sn59PhIFhmEgkMvcaOyiFVCqVcXFxcLcTEhJorwrQq9yuW7fOqFlKSgoAIDQ01IKQ/x0Jn88nIqFRFhh8Qvb09MAji2HY1atXLVwPEBkZSdbSsH2tUqmmT58OAKDXuKeITCbTe4Hr/v37Znmw6aK5ITiO5+XlJSUlsdlsoVC4devWoUMtKk5t27aNPCTfA0OuXLny6dOnoKAgX19felNoNJr29vb29najjfHeEIvFZs0ymITEcfzx48dxcXFsNjs3Nzc4ONiwDldfX+/r67tr167fv39T8Tlnzpzg4GBieObMmV+/fpENsrKygAWLj2tqavz8/NhsNpvNDgsL+/nzJ8UNf/z4QXEXIINJyBcvXuzevdve3v7atWsrV640Wk1tbm6urq52cXFxcHCg6FavOUxOyszMTLFYvGzZMhO9CxN0dXWlpKSUl5fDYU5OTkZGBsUe8oQJE+zt7anPNWiElEgkMTExTk5O2dnZfn5+vdXEv3z5olAopkyZQt3zokWLyDqdP3+e+AzfBTh06BC9mBsbG9+9e0f+RiKRKJVKKttyOBwTdX9DBoeQNTU1sIubmZm5YMGC3sy6u7urqqoAANS7GZCDBw8Sn5uammCL49atW69evZo7d+7KlSvphW1nZ6f3F+7k5DRs2DBDS5lMRl4kwOFwiEosRWy9jQUAaG1tjYmJqa2tPX78uEKhKC0tNbTRarU1NTWNjY1379718vIyd7XA6tWrPT09P3z4AIdCoXDbtm3wGnv06FHakTs7O8+aNQueWwAADMMEAgG5CkHw/ft38t3NihUrPD09zZusT+6mrff4obdslQr+/v40iu+5ublkJw8ePAAAeHh4WBI82a1AICguLjZaGVer1dHR0cTUXC6XRuXBpi+tXV1dycnJFy9eNGsrDodj1m0CZPPmzWPHjiWGlqcjZNWqVbA5093d7ejoaPi3h+N4fn5+dnY2HGIYlpycTC4OUIW65v3fxhKLxdOmTTPXT2xsrEajMfeMxnE8PT2d7IfD4dBwYsi3b99Wr14NAMAwLCQkpKSkRC6Xwwpca2trWloa8e4Hm80WiUT0+lk21MYKCgrSE7KsrIyGn/T0dBoHAjdYXHrhwgV6fgxRKpWmX8UCNvs21iAlJiYGHtZRo0ZZ3Xlra6tIJNqwYQOXyyX0W7x4cWpqqlQqpd2JhKA3lv+io6MDrjk+efKkXm/ExkFC6nPkyJHhw4frva1n+yAhGYJNP34gqIOEZAhISIaAhGQISEiGgIRkCEhIhoCEZAhISIaAhGQISEiGgIRkCEhIhoCEZAhISIaAhGQISEiGgIRkCEhIhoCEZAhISIaAhGQI/wOH+8O43qfRqwAAAABJRU5ErkJggg==;" vertex="1" parent="1">
          <mxGeometry x="495" y="968" width="53.02" height="30" as="geometry" />
        </mxCell>
        <mxCell id="Y6ogjxc_GPQmdI7bhcoR-57" value="&lt;font style=&quot;font-size: 15px;&quot;&gt;h2=-0.357m&lt;/font&gt;&lt;div style=&quot;font-size: 15px;&quot;&gt;&lt;font style=&quot;font-size: 15px;&quot;&gt;S2=2KM&lt;/font&gt;&lt;/div&gt;" style="text;html=1;align=center;verticalAlign=middle;resizable=0;points=[];autosize=1;strokeColor=none;fillColor=none;" vertex="1" parent="1">
          <mxGeometry x="320" y="858" width="100" height="50" as="geometry" />
        </mxCell>
        <mxCell id="Y6ogjxc_GPQmdI7bhcoR-58" value="&lt;font style=&quot;font-size: 15px;&quot;&gt;h1=1.359m&lt;/font&gt;&lt;div style=&quot;font-size: 15px;&quot;&gt;&lt;font style=&quot;font-size: 15px;&quot;&gt;S1=1km&lt;/font&gt;&lt;/div&gt;" style="text;html=1;align=center;verticalAlign=middle;resizable=0;points=[];autosize=1;strokeColor=none;fillColor=none;" vertex="1" parent="1">
          <mxGeometry x="110" y="858" width="100" height="50" as="geometry" />
        </mxCell>
        <mxCell id="Y6ogjxc_GPQmdI7bhcoR-59" value="图3" style="text;html=1;align=center;verticalAlign=middle;resizable=0;points=[];autosize=1;strokeColor=none;fillColor=none;" vertex="1" parent="1">
          <mxGeometry x="240" y="998" width="40" height="30" as="geometry" />
        </mxCell>
      </root>
    </mxGraphModel>
  </diagram>
</mxfile>
